<svg width="37" height="37" viewBox="0 0 37 37" fill="none" xmlns="http://www.w3.org/2000/svg">
<path d="M35.4584 6.32087V3.54587L32.6834 3.23754C32.5292 3.23754 31.6042 3.08337 30.0625 3.08337C23.7417 3.08337 19.1167 4.93337 16.4959 8.17087C14.4917 6.93754 11.7167 6.16671 8.4792 6.16671C6.93753 6.16671 5.85837 6.32087 5.85837 6.32087L2.9292 6.78337L3.08337 9.40421C3.23753 14.0292 5.55003 22.8167 13.5667 22.8167H13.875V28.0584C8.0167 28.8292 3.08337 30.8334 3.08337 30.8334V33.9167H33.9167V30.8334C33.9167 30.8334 28.9834 28.8292 23.125 28.0584V23.125C32.8375 22.9709 35.4584 12.025 35.4584 6.32087ZM18.5 27.75H16.9584V19.1167C16.9584 19.1167 16.65 13.875 12.3334 13.875C12.3334 13.875 14.6459 15.1084 15.2625 19.5792C14.6459 19.7334 14.0292 19.7334 13.5667 19.7334C6.47503 19.7334 6.1667 9.40421 6.1667 9.40421C6.1667 9.40421 7.0917 9.25004 8.4792 9.25004C11.4084 9.25004 16.1875 9.86671 17.575 14.0292C18.3459 7.09171 26.2084 6.16671 30.0625 6.16671C31.45 6.16671 32.375 6.32087 32.375 6.32087C32.375 6.32087 32.375 20.1959 22.6625 20.1959H21.5834C21.5834 17.1125 24.6667 12.4875 24.6667 12.4875C20.0417 14.0292 20.0417 20.0417 20.0417 20.0417V27.75H18.5Z" fill="#39A93D"/>
</svg>
